# xmcd
#
# Track frame offsets:
#	150
#	6574
#	16932
#	27884
#	42365
#	50371
#	55122
#	66156
#	71902
#	92235
#	105450
#	115703
#	130654
#	139555
#	146207
#	151453
#	160769
#	167421
#
# Disc length: 2346 seconds
#
# Revision: 1
# Processed by: cddbd v1.5PL3 Copyright (c) Steve Scherf et al.
# Submitted via: audiograbber 1.82.02
#
DISCID=f0092812
DTITLE=Wynette, Tammy - Welcome To My World
DYEAR=2001
DGENRE=Country
TTITLE0=Welcome To My World
TTITLE1=Another Chance
TTITLE2=Much Better Luck Than Me
TTITLE3=Fairy Tails
TTITLE4=Such A Fool To Love Me
TTITLE5=Til I Can Make It On My Own
TTITLE6=When The Grass Grows Over Me
TTITLE7=Your Good Girl's Gonna Go Bad
TTITLE8=D.I.V.O.R.C.E.
TTITLE9=Singing My Song
TTITLE10=Til Then And Only Then
TTITLE11=Amazing Grace - I'll Fly Away - Will The Circle Be Unbroken - I  Saw T
TTITLE11=he Light (Medley)
TTITLE12=No Sign Of Living
TTITLE13=Stand By Your Man
TTITLE14=I Can't Help It
TTITLE15=Womanhood
TTITLE16=He Says The Same Thing To Me
TTITLE17=Crying In The Rain
EXTD=
EXTT0=
EXTT1=
EXTT2=
EXTT3=
EXTT4=
EXTT5=
EXTT6=
EXTT7=
EXTT8=
EXTT9=
EXTT10=
EXTT11=
EXTT12=
EXTT13=
EXTT14=
EXTT15=
EXTT16=
EXTT17=
PLAYORDER=
